<svg width="92" height="24" viewBox="0 0 92 24" fill="none" xmlns="http://www.w3.org/2000/svg">
<g clip-path="url(#clip0_1444_99390)">
<path d="M50.7709 13.3105L47.126 22.1792H43.2693C42.7369 22.1792 42.2917 21.7717 42.2461 21.2422L41.0781 7.31445H43.8687C44.7498 7.31445 45.4686 8.02089 45.4833 8.9016L46.2356 17.3762L50.3525 7.31445H52.203C53.072 7.31445 53.7841 8.00078 53.8163 8.86942L54.1287 17.3199L58.251 7.31445H60.068C61.2561 7.31445 62.0366 8.55307 61.5243 9.62412L56.3601 22.1792H52.1052C51.5527 22.1792 51.0981 21.7422 51.078 21.1899L50.7695 13.3105H50.7709Z" fill="#3D3935"/>
<path d="M63.9829 7.31445H66.5442C67.5593 7.31445 68.3237 8.24073 68.1292 9.23806L65.6041 22.1805H62.3307C61.6844 22.1805 61.1976 21.5907 61.3223 20.9566L63.9842 7.31579L63.9829 7.31445Z" fill="#3D3935"/>
<path d="M80.065 7.31429L79.4482 8.9202C78.9976 10.0931 77.8712 10.8666 76.6147 10.8666H74.862L72.6721 22.179H69.6079C68.853 22.179 68.2871 21.4913 68.4305 20.7501L71.0508 7.34244C71.2788 6.14941 71.6007 5.1494 72.0177 4.34376C72.4348 3.53813 72.9604 2.88933 73.5961 2.39603C74.2304 1.90273 74.9894 1.54884 75.8704 1.33033C76.7514 1.11317 77.78 1.02068 78.9547 1.00326C79.6037 0.992531 80.2823 1.00996 80.8321 1.03141C81.398 1.05285 81.7762 1.61988 81.583 2.15206L80.6899 4.6132C80.3681 4.59443 80.0543 4.57969 79.7512 4.57031C79.4482 4.56092 79.1733 4.5569 78.9265 4.5569C78.3579 4.5569 77.8792 4.59578 77.4903 4.67084C77.1014 4.74725 76.7836 4.888 76.5382 5.09712C76.2915 5.30624 76.093 5.59042 75.9415 5.94967C75.7899 6.31027 75.6666 6.76469 75.5714 7.31429H80.0637H80.065Z" fill="#3D3935"/>
<path d="M86.4919 7.31422L87.1932 3.87586C87.4292 2.5233 86.3859 1.28603 85.0128 1.29005L83.1836 1.29675L80.1946 16.2111C80.1382 16.5341 80.09 16.8465 80.0524 17.1481C80.0135 17.451 79.9961 17.7366 79.9961 18.0006C79.9961 19.3264 80.3796 20.3599 81.148 21.0985C81.9151 21.8371 83.1434 22.2071 84.8304 22.2071C85.0195 22.2071 87.1704 22.2031 87.1704 22.2031C87.7296 22.2058 88.1869 21.8304 88.3291 21.3344H88.3277L89.2664 18.6253C89.1712 18.6253 88.9969 18.6307 88.7407 18.64C88.4846 18.6494 88.2003 18.6548 87.8879 18.6548H86.3377C85.6927 18.6548 85.2434 18.5408 84.9873 18.3143C84.7312 18.0864 84.6038 17.7459 84.6038 17.2915C84.6038 16.9698 84.6413 16.6481 84.7177 16.325L85.7691 10.8679H87.5499C88.8064 10.8679 89.9329 10.0944 90.3835 8.92147L91.0003 7.31422H86.4932H86.4919Z" fill="#3D3935"/>
<path d="M40.4223 5.23803C39.7397 5.23803 37.5459 5.20854 37.0819 5.20854H34.3664C33.4572 5.20854 32.7545 5.33991 32.2623 5.60264C31.7689 5.86672 31.4658 6.29032 31.3531 6.87611C31.2968 7.1107 31.2673 7.33456 31.2673 7.54904C31.2673 7.9981 31.4001 8.33859 31.6656 8.57318C31.9311 8.80642 32.3576 9.01152 32.9449 9.18712L35.5612 10.0357C37.1717 10.5625 38.2955 11.2448 38.9311 12.0839C39.5654 12.9231 39.8832 13.8976 39.8832 15.0089C39.8832 15.5156 39.8269 16.0625 39.7129 16.6483C39.5037 17.7408 39.1765 18.643 38.7327 19.3534C38.2874 20.0666 37.6987 20.6363 36.9692 21.0652C36.2397 21.4942 35.3668 21.7971 34.353 21.9714C33.3392 22.147 32.1591 22.2355 30.8127 22.2355C29.9411 22.2355 28.9031 22.2248 27.6989 22.206C27.0351 22.1953 26.3526 22.1872 25.6512 22.1832C24.8077 22.1778 24.2257 21.3079 24.5248 20.4969L25.3535 18.2569C25.9033 18.277 26.4813 18.2904 27.0874 18.2998C27.6936 18.3105 28.2823 18.3145 28.8508 18.3145H31.4671C32.6043 18.3145 33.4625 18.1926 34.0405 17.9486C34.6185 17.706 34.9832 17.2033 35.1348 16.4419C35.1535 16.3454 35.1683 16.2475 35.1777 16.1496C35.1871 16.0531 35.1924 15.9553 35.1924 15.8574C35.1924 15.3882 35.0449 15.0236 34.7512 14.7595C34.4576 14.4955 34.0164 14.2676 33.429 14.0719L31.0125 13.3118C30.1784 13.0384 29.4771 12.7367 28.9085 12.4056C28.3399 12.0745 27.8853 11.7086 27.5434 11.3078C27.2028 10.9083 26.956 10.47 26.8045 9.99142C26.6529 9.51286 26.5765 8.99141 26.5765 8.42572C26.5765 7.89891 26.6328 7.32384 26.7468 6.70051C26.9359 5.64688 27.2778 4.77422 27.77 4.08118C28.2621 3.38949 28.883 2.83319 29.6326 2.41361C30.3809 1.99404 31.2432 1.70181 32.2194 1.53559C33.1957 1.36937 34.2618 1.2876 35.4177 1.2876C35.9099 1.2876 38.9861 1.29296 39.5829 1.30234C39.8604 1.30771 40.1769 1.31307 40.5309 1.31977C41.1921 1.33183 41.644 2.01951 41.4039 2.65356L40.4223 5.23803Z" fill="#3D3935"/>
<path d="M65.7956 6.02255C67.1325 6.02255 68.2162 4.94172 68.2162 3.60844C68.2162 2.27517 67.1325 1.19434 65.7956 1.19434C64.4587 1.19434 63.375 2.27517 63.375 3.60844C63.375 4.94172 64.4587 6.02255 65.7956 6.02255Z" fill="#3D3935"/>
<path d="M21.4841 1.00049L11.4937 1.08226C5.65093 1.13052 0.953414 5.90401 1.00035 11.7459C1.04862 17.5569 5.77699 22.2352 11.5781 22.2352H11.6667C17.1849 22.1897 21.6209 17.6816 21.5766 12.1668L21.4841 1.00049ZM18.9603 12.0676C18.9764 14.0488 18.2174 15.9188 16.8241 17.3357C15.4308 18.7513 13.5722 19.5408 11.5902 19.5569H11.5232C9.4245 19.5569 7.44787 18.7432 5.95802 17.266C4.46549 15.7861 3.63407 13.8156 3.61798 11.7164C3.5992 9.60511 4.40649 7.61314 5.88695 6.10642C7.36875 4.60105 9.34807 3.76324 11.4615 3.74448L18.892 3.68549L18.9603 12.0676Z" fill="#DC4405"/>
</g>
<defs>
<clipPath id="clip0_1444_99390">
<rect width="92" height="24" fill="white"/>
</clipPath>
</defs>
</svg>
